<?xml version="1.0" ?><!DOCTYPE svg  PUBLIC '-//W3C//DTD SVG 1.1//EN'  'http://www.w3.org/Graphics/SVG/1.1/DTD/svg11.dtd'><svg enable-background="new 0 0 1000 1000" height="1000px" id="Layer_1" version="1.1" viewBox="0 0 1000 1000" width="1000px" xml:space="preserve" xmlns="http://www.w3.org/2000/svg" xmlns:xlink="http://www.w3.org/1999/xlink"><g><path d="M515.041,619.031c24.58,0,47.863-7.126,65.56-20.065c19.11-13.974,29.635-33,29.635-53.573V396.159c0-8.284-6.716-15-15-15   h-30.817V226.946c0-25.473-24.868-45.426-56.614-45.426h-15.606c-31.747,0-56.615,19.954-56.615,45.426v154.213h-30.818   c-8.284,0-15,6.716-15,15v149.234c0,20.573,10.524,39.6,29.634,53.572c17.696,12.94,40.979,20.066,65.559,20.066H485V788.48   h-44.367c-8.284,0-15,6.716-15,15s6.716,15,15,15h118.734c8.284,0,15-6.716,15-15s-6.716-15-15-15H515V619.031H515.041z    M465.583,226.946c0-7.282,11.382-15.426,26.615-15.426h15.606c15.232,0,26.614,8.145,26.614,15.426v5.776h-37.603   c-8.284,0-15,6.716-15,15s6.716,15,15,15h37.603v24.587h-37.603c-8.284,0-15,6.716-15,15s6.716,15,15,15h37.603v25.597h-37.603   c-8.284,0-15,6.716-15,15s6.716,15,15,15h37.603v23.214c0,0.013-0.002,0.025-0.002,0.039v89.384   c0,7.283-11.381,15.428-26.612,15.428h-15.606c-15.233,0-26.615-8.146-26.615-15.428V226.946z M419.764,545.393V411.159h15.817   v74.384c0,25.474,24.869,45.428,56.616,45.428h15.606c31.746,0,56.614-19.954,56.614-45.428v-74.384h15.817v134.234   c0,23.654-29.855,43.639-65.194,43.639h-30.084C449.619,589.031,419.764,569.047,419.764,545.393z"/><path d="M857.062,603.035h-1.139c-6.451,0-12.18,4.125-14.226,10.242c-48.953,146.375-185.441,244.721-339.633,244.721   c-197.4,0-357.997-160.597-357.997-357.998s160.597-357.999,357.997-357.999c49.125,0,96.767,9.834,141.602,29.228   c7.161,3.098,15.503,0.188,19.183-6.694l0.525-0.982c1.978-3.699,2.316-8.057,0.935-12.017c-1.383-3.96-4.36-7.16-8.21-8.825   l-0.905-0.395c-0.564-0.248-1.13-0.495-1.709-0.74c-47.968-20.289-98.912-30.576-151.42-30.576   c-52.506,0-103.451,10.287-151.42,30.575c-46.321,19.592-87.921,47.638-123.643,83.359   c-35.721,35.721-63.767,77.321-83.359,123.642c-20.288,47.969-30.575,98.915-30.575,151.422c0,52.505,10.287,103.45,30.575,151.418   c19.593,46.325,47.639,87.925,83.359,123.643c35.72,35.72,77.319,63.767,123.643,83.361c47.969,20.288,98.914,30.575,151.42,30.575   c52.508,0,103.452-10.287,151.421-30.575c46.324-19.595,87.924-47.642,123.644-83.361c35.72-35.717,63.766-77.316,83.36-123.643   c3.951-9.344,7.587-18.98,10.804-28.646c1.523-4.573,0.755-9.601-2.064-13.511S861.882,603.035,857.062,603.035z"/><path d="M683.188,191.32c17.845,10.515,34.888,22.656,50.655,36.086c2.808,2.391,6.269,3.581,9.726,3.581   c3.62,0,7.237-1.305,10.094-3.903l0.885-0.805c3.187-2.899,4.974-7.027,4.905-11.335c-0.068-4.307-1.985-8.377-5.263-11.173   c-17.202-14.677-35.786-27.914-55.233-39.341c-3.52-2.068-7.729-2.613-11.661-1.508c-3.93,1.105-7.239,3.765-9.165,7.365   l-0.554,1.035C673.783,178.414,676.259,187.236,683.188,191.32z"/><path d="M886.767,441.849c-4.786-31.98-13.627-63.36-26.277-93.27c-13.438-31.771-31.012-61.572-52.231-88.574   c-2.572-3.272-6.389-5.33-10.536-5.679c-4.14-0.344-8.254,1.041-11.337,3.838l-0.896,0.813c-5.828,5.288-6.579,14.181-1.72,20.371   c38.121,48.559,63.113,106.293,72.275,166.96c1.108,7.336,7.413,12.76,14.832,12.76h1.055c4.366,0,8.515-1.902,11.364-5.209   S887.412,446.166,886.767,441.849z"/></g></svg>