<?xml version="1.0" ?><!DOCTYPE svg  PUBLIC '-//W3C//DTD SVG 1.1//EN'  'http://www.w3.org/Graphics/SVG/1.1/DTD/svg11.dtd'><svg enable-background="new 0 0 1000 1000" height="1000px" id="Layer_1" version="1.1" viewBox="0 0 1000 1000" width="1000px" xml:space="preserve" xmlns="http://www.w3.org/2000/svg" xmlns:xlink="http://www.w3.org/1999/xlink"><g><g><g><path d="M502.065,889.093c-52.506,0-103.45-10.287-151.419-30.575c-46.324-19.595-87.923-47.642-123.643-83.361     c-35.72-35.718-63.767-77.317-83.359-123.643c-20.288-47.969-30.575-98.913-30.575-151.419     c0-52.507,10.287-103.452,30.575-151.421c19.592-46.322,47.638-87.921,83.359-123.642c35.721-35.721,77.32-63.768,123.643-83.359     c47.969-20.288,98.913-30.575,151.419-30.575c52.508,0,103.452,10.287,151.42,30.576c0.578,0.245,1.144,0.492,1.709,0.739     l0.904,0.395c3.851,1.665,6.828,4.865,8.211,8.826s1.043,8.319-0.936,12.018l-0.525,0.982c-3.681,6.881-12.021,9.79-19.182,6.692     c-44.835-19.395-92.477-29.228-141.602-29.228c-197.399,0-357.996,160.597-357.996,357.998s160.597,357.998,357.996,357.998     c154.191,0,290.68-98.346,339.633-244.721c2.046-6.117,7.774-10.242,14.226-10.242h1.139c4.82,0,9.348,2.317,12.167,6.228     s3.588,8.938,2.064,13.511c-3.217,9.665-6.853,19.302-10.804,28.646c-19.595,46.326-47.641,87.926-83.36,123.643     c-35.72,35.72-77.319,63.767-123.644,83.361C605.518,878.806,554.572,889.093,502.065,889.093z"/></g><g><path d="M743.57,231.082c-3.457,0-6.918-1.19-9.726-3.581c-15.768-13.43-32.811-25.571-50.655-36.086     c-6.93-4.083-9.405-12.906-5.611-19.999l0.554-1.035c1.926-3.6,5.235-6.259,9.165-7.365c3.933-1.104,8.143-0.561,11.661,1.508     c19.447,11.428,38.031,24.665,55.233,39.341c3.277,2.796,5.194,6.866,5.263,11.173c0.068,4.308-1.719,8.436-4.905,11.335     l-0.885,0.805C750.808,229.776,747.19,231.082,743.57,231.082z"/></g><g><path d="M871.933,459.164h-1.055c-7.419,0-13.724-5.424-14.832-12.76c-9.162-60.667-34.154-118.401-72.275-166.96     c-4.859-6.19-4.108-15.083,1.72-20.371l0.896-0.813c3.083-2.797,7.201-4.187,11.337-3.838c4.147,0.349,7.964,2.406,10.536,5.679     c21.22,27.002,38.793,56.802,52.231,88.574c12.65,29.91,21.491,61.29,26.277,93.27c0.646,4.317-0.621,8.703-3.471,12.01     S876.299,459.164,871.933,459.164z"/></g></g><g><g><g><path d="M325.969,720.171c-8.284,0-15-6.716-15-15v-410.15c0-8.284,6.716-15,15-15s15,6.716,15,15v410.15      C340.969,713.455,334.253,720.171,325.969,720.171z"/></g><g><path d="M345.336,655.857h-38.734c-11.643,0-21.115-9.473-21.115-21.115v-38.734c0-11.643,9.473-21.115,21.115-21.115h38.734      c11.643,0,21.115,9.473,21.115,21.115v38.734C366.451,646.385,356.979,655.857,345.336,655.857z M315.486,625.857h20.965      v-20.965h-20.965V625.857z"/></g></g><g><g><path d="M441.99,720.171c-8.284,0-15-6.716-15-15V295.02c0-8.284,6.716-15,15-15s15,6.716,15,15v410.151      C456.99,713.455,450.274,720.171,441.99,720.171z"/></g><g><path d="M461.357,461.051h-38.734c-11.643,0-21.115-9.473-21.115-21.116v-38.733c0-11.644,9.473-21.116,21.115-21.116h38.734      c11.643,0,21.115,9.473,21.115,21.116v38.733C482.473,451.579,473,461.051,461.357,461.051z M431.508,431.051h20.965v-20.966      h-20.965V431.051z"/></g></g><g><g><path d="M558.012,720.171c-8.284,0-15-6.716-15-15v-410.15c0-8.284,6.716-15,15-15s15,6.716,15,15v410.15      C573.012,713.455,566.296,720.171,558.012,720.171z"/></g><g><path d="M577.379,655.857h-38.734c-11.643,0-21.115-9.473-21.115-21.115v-38.734c0-11.643,9.473-21.115,21.115-21.115h38.734      c11.643,0,21.115,9.473,21.115,21.115v38.734C598.494,646.385,589.021,655.857,577.379,655.857z M547.529,625.857h20.965      v-20.965h-20.965V625.857z"/></g></g><g><g><path d="M674.033,720.171c-8.284,0-15-6.716-15-15V295.02c0-8.284,6.716-15,15-15s15,6.716,15,15v410.151      C689.033,713.455,682.317,720.171,674.033,720.171z"/></g><g><path d="M693.4,461.051h-38.734c-11.643,0-21.115-9.473-21.115-21.116v-38.733c0-11.644,9.473-21.116,21.115-21.116H693.4      c11.643,0,21.115,9.473,21.115,21.116v38.733C714.516,451.579,705.043,461.051,693.4,461.051z M663.551,431.051h20.965v-20.966      h-20.965V431.051z"/></g></g></g></g></svg>